<mxfile host="app.diagrams.net" modified="2020-12-14T12:34:27.154Z" agent="5.0 (Windows NT 10.0; Win64; x64) AppleWebKit/537.36 (KHTML, like Gecko) Chrome/87.0.4280.88 Safari/537.36" etag="SFFe0iaJ54LXnvzhmlVL" version="14.0.1" type="github">
  <diagram id="C5RBs43oDa-KdzZeNtuy" name="Page-1">
    <mxGraphModel dx="1422" dy="762" grid="1" gridSize="10" guides="1" tooltips="1" connect="1" arrows="1" fold="1" page="1" pageScale="1" pageWidth="827" pageHeight="1169" math="0" shadow="0">
      <root>
        <mxCell id="WIyWlLk6GJQsqaUBKTNV-0" />
        <mxCell id="WIyWlLk6GJQsqaUBKTNV-1" parent="WIyWlLk6GJQsqaUBKTNV-0" />
        <mxCell id="tHNdHLTSoMLQYpR_3yca-2" value="" style="edgeStyle=orthogonalEdgeStyle;rounded=0;orthogonalLoop=1;jettySize=auto;html=1;" edge="1" parent="WIyWlLk6GJQsqaUBKTNV-1" source="tHNdHLTSoMLQYpR_3yca-0" target="tHNdHLTSoMLQYpR_3yca-1">
          <mxGeometry relative="1" as="geometry" />
        </mxCell>
        <mxCell id="tHNdHLTSoMLQYpR_3yca-0" value="start" style="ellipse;whiteSpace=wrap;html=1;" vertex="1" parent="WIyWlLk6GJQsqaUBKTNV-1">
          <mxGeometry x="350" y="30" width="120" height="81" as="geometry" />
        </mxCell>
        <mxCell id="tHNdHLTSoMLQYpR_3yca-4" value="" style="edgeStyle=orthogonalEdgeStyle;rounded=0;orthogonalLoop=1;jettySize=auto;html=1;" edge="1" parent="WIyWlLk6GJQsqaUBKTNV-1" source="tHNdHLTSoMLQYpR_3yca-1" target="tHNdHLTSoMLQYpR_3yca-3">
          <mxGeometry relative="1" as="geometry" />
        </mxCell>
        <mxCell id="tHNdHLTSoMLQYpR_3yca-1" value="user query" style="shape=parallelogram;perimeter=parallelogramPerimeter;whiteSpace=wrap;html=1;fixedSize=1;" vertex="1" parent="WIyWlLk6GJQsqaUBKTNV-1">
          <mxGeometry x="350" y="140" width="120" height="60" as="geometry" />
        </mxCell>
        <mxCell id="tHNdHLTSoMLQYpR_3yca-6" value="" style="edgeStyle=orthogonalEdgeStyle;rounded=0;orthogonalLoop=1;jettySize=auto;html=1;" edge="1" parent="WIyWlLk6GJQsqaUBKTNV-1" source="tHNdHLTSoMLQYpR_3yca-3" target="tHNdHLTSoMLQYpR_3yca-5">
          <mxGeometry relative="1" as="geometry" />
        </mxCell>
        <mxCell id="tHNdHLTSoMLQYpR_3yca-3" value="look for 1st source and do its stuf" style="whiteSpace=wrap;html=1;" vertex="1" parent="WIyWlLk6GJQsqaUBKTNV-1">
          <mxGeometry x="350" y="240" width="120" height="60" as="geometry" />
        </mxCell>
        <mxCell id="tHNdHLTSoMLQYpR_3yca-5" value="look for nTH source and do its stuf" style="whiteSpace=wrap;html=1;" vertex="1" parent="WIyWlLk6GJQsqaUBKTNV-1">
          <mxGeometry x="350" y="330" width="120" height="60" as="geometry" />
        </mxCell>
      </root>
    </mxGraphModel>
  </diagram>
</mxfile>
